<mxfile host="Electron" modified="2023-04-12T11:24:27.501Z" agent="Mozilla/5.0 (Windows NT 10.0; Win64; x64) AppleWebKit/537.36 (KHTML, like Gecko) draw.io/21.1.2 Chrome/106.0.5249.199 Electron/21.4.3 Safari/537.36" etag="-3YimHGyJ-b16gsYjDx4" version="21.1.2" type="device">
  <diagram name="Page-1" id="EmOqTnEqUwI-xcRcGEUb">
    <mxGraphModel dx="1688" dy="683" grid="0" gridSize="10" guides="1" tooltips="1" connect="1" arrows="1" fold="1" page="0" pageScale="1" pageWidth="827" pageHeight="1169" math="0" shadow="0">
      <root>
        <mxCell id="0" />
        <mxCell id="1" parent="0" />
        <mxCell id="SmoXj8283dEyzRaAw3Vn-1" value="Car" style="swimlane;childLayout=stackLayout;horizontal=1;startSize=50;horizontalStack=0;rounded=1;fontSize=14;fontStyle=0;strokeWidth=2;resizeParent=0;resizeLast=1;shadow=0;dashed=0;align=center;arcSize=4;whiteSpace=wrap;html=1;" parent="1" vertex="1">
          <mxGeometry x="299" y="300" width="140" height="240" as="geometry" />
        </mxCell>
        <mxCell id="SmoXj8283dEyzRaAw3Vn-2" value="id (pk)&lt;br&gt;topSpeed&lt;br&gt;breakingForce&lt;br&gt;acceleration&lt;br&gt;nitro&lt;br&gt;hp&lt;br&gt;brand&lt;br&gt;model&lt;br&gt;color&lt;br&gt;price&lt;br&gt;tintedWindows&lt;br&gt;weight" style="align=left;strokeColor=none;fillColor=none;spacingLeft=4;fontSize=12;verticalAlign=top;resizable=0;rotatable=0;part=1;html=1;" parent="SmoXj8283dEyzRaAw3Vn-1" vertex="1">
          <mxGeometry y="50" width="140" height="190" as="geometry" />
        </mxCell>
        <mxCell id="SmoXj8283dEyzRaAw3Vn-3" value="Spoiler" style="swimlane;childLayout=stackLayout;horizontal=1;startSize=50;horizontalStack=0;rounded=1;fontSize=14;fontStyle=0;strokeWidth=2;resizeParent=0;resizeLast=1;shadow=0;dashed=0;align=center;arcSize=4;whiteSpace=wrap;html=1;" parent="1" vertex="1">
          <mxGeometry x="510" y="170" width="160" height="150" as="geometry" />
        </mxCell>
        <mxCell id="SmoXj8283dEyzRaAw3Vn-4" value="id (pk)&lt;br&gt;type&lt;br&gt;name&lt;br&gt;level&lt;br&gt;price&lt;br&gt;ImpactVelocity" style="align=left;strokeColor=none;fillColor=none;spacingLeft=4;fontSize=12;verticalAlign=top;resizable=0;rotatable=0;part=1;html=1;" parent="SmoXj8283dEyzRaAw3Vn-3" vertex="1">
          <mxGeometry y="50" width="160" height="100" as="geometry" />
        </mxCell>
        <mxCell id="SmoXj8283dEyzRaAw3Vn-5" value="Tyres" style="swimlane;childLayout=stackLayout;horizontal=1;startSize=50;horizontalStack=0;rounded=1;fontSize=14;fontStyle=0;strokeWidth=2;resizeParent=0;resizeLast=1;shadow=0;dashed=0;align=center;arcSize=4;whiteSpace=wrap;html=1;" parent="1" vertex="1">
          <mxGeometry x="619" y="540" width="160" height="160" as="geometry" />
        </mxCell>
        <mxCell id="SmoXj8283dEyzRaAw3Vn-6" value="id (pk)&lt;br&gt;name&lt;br&gt;level&lt;br&gt;price&lt;br&gt;type&lt;br&gt;ImpactBreakingforce&lt;br&gt;ImpactAcceleration" style="align=left;strokeColor=none;fillColor=none;spacingLeft=4;fontSize=12;verticalAlign=top;resizable=0;rotatable=0;part=1;html=1;" parent="SmoXj8283dEyzRaAw3Vn-5" vertex="1">
          <mxGeometry y="50" width="160" height="110" as="geometry" />
        </mxCell>
        <mxCell id="SmoXj8283dEyzRaAw3Vn-7" value="Break" style="swimlane;childLayout=stackLayout;horizontal=1;startSize=50;horizontalStack=0;rounded=1;fontSize=14;fontStyle=0;strokeWidth=2;resizeParent=0;resizeLast=1;shadow=0;dashed=0;align=center;arcSize=4;whiteSpace=wrap;html=1;" parent="1" vertex="1">
          <mxGeometry x="79" y="620" width="160" height="140" as="geometry" />
        </mxCell>
        <mxCell id="SmoXj8283dEyzRaAw3Vn-8" value="id (pk)&lt;br&gt;name&lt;br&gt;level&lt;br&gt;price&lt;br&gt;ImpactBreakingForce" style="align=left;strokeColor=none;fillColor=none;spacingLeft=4;fontSize=12;verticalAlign=top;resizable=0;rotatable=0;part=1;html=1;" parent="SmoXj8283dEyzRaAw3Vn-7" vertex="1">
          <mxGeometry y="50" width="160" height="90" as="geometry" />
        </mxCell>
        <mxCell id="SmoXj8283dEyzRaAw3Vn-9" value="Engine" style="swimlane;childLayout=stackLayout;horizontal=1;startSize=50;horizontalStack=0;rounded=1;fontSize=14;fontStyle=0;strokeWidth=2;resizeParent=0;resizeLast=1;shadow=0;dashed=0;align=center;arcSize=4;whiteSpace=wrap;html=1;" parent="1" vertex="1">
          <mxGeometry x="609" y="340" width="160" height="190" as="geometry" />
        </mxCell>
        <mxCell id="SmoXj8283dEyzRaAw3Vn-10" value="id (pk)&lt;br&gt;name&lt;br&gt;type&lt;br&gt;cylinder&lt;br&gt;level&lt;br&gt;price&lt;br&gt;ImpactVelocity&lt;br&gt;ImpactAcceleration&lt;br&gt;ImplactHorsePower" style="align=left;strokeColor=none;fillColor=none;spacingLeft=4;fontSize=12;verticalAlign=top;resizable=0;rotatable=0;part=1;html=1;" parent="SmoXj8283dEyzRaAw3Vn-9" vertex="1">
          <mxGeometry y="50" width="160" height="140" as="geometry" />
        </mxCell>
        <mxCell id="SmoXj8283dEyzRaAw3Vn-11" value="Nitro" style="swimlane;childLayout=stackLayout;horizontal=1;startSize=50;horizontalStack=0;rounded=1;fontSize=14;fontStyle=0;strokeWidth=2;resizeParent=0;resizeLast=1;shadow=0;dashed=0;align=center;arcSize=4;whiteSpace=wrap;html=1;" parent="1" vertex="1">
          <mxGeometry x="49" y="385" width="160" height="135" as="geometry" />
        </mxCell>
        <mxCell id="SmoXj8283dEyzRaAw3Vn-12" value="id (pk)&lt;br&gt;name&lt;br&gt;level&lt;br&gt;price&lt;br&gt;ImpactNitro" style="align=left;strokeColor=none;fillColor=none;spacingLeft=4;fontSize=12;verticalAlign=top;resizable=0;rotatable=0;part=1;html=1;" parent="SmoXj8283dEyzRaAw3Vn-11" vertex="1">
          <mxGeometry y="50" width="160" height="85" as="geometry" />
        </mxCell>
        <mxCell id="SmoXj8283dEyzRaAw3Vn-23" value="" style="edgeStyle=entityRelationEdgeStyle;fontSize=12;html=1;endArrow=ERmany;rounded=0;" parent="1" source="SmoXj8283dEyzRaAw3Vn-11" target="SmoXj8283dEyzRaAw3Vn-2" edge="1">
          <mxGeometry width="100" height="100" relative="1" as="geometry">
            <mxPoint x="149" y="400" as="sourcePoint" />
            <mxPoint x="249" y="300" as="targetPoint" />
          </mxGeometry>
        </mxCell>
        <mxCell id="SmoXj8283dEyzRaAw3Vn-24" value="" style="edgeStyle=entityRelationEdgeStyle;fontSize=12;html=1;endArrow=ERmany;rounded=0;entryX=0;entryY=0.75;entryDx=0;entryDy=0;" parent="1" source="SmoXj8283dEyzRaAw3Vn-7" target="SmoXj8283dEyzRaAw3Vn-2" edge="1">
          <mxGeometry width="100" height="100" relative="1" as="geometry">
            <mxPoint x="279" y="640" as="sourcePoint" />
            <mxPoint x="379" y="540" as="targetPoint" />
          </mxGeometry>
        </mxCell>
        <mxCell id="SmoXj8283dEyzRaAw3Vn-25" value="" style="edgeStyle=entityRelationEdgeStyle;fontSize=12;html=1;endArrow=ERoneToMany;rounded=0;entryX=1;entryY=0.75;entryDx=0;entryDy=0;" parent="1" source="SmoXj8283dEyzRaAw3Vn-5" target="SmoXj8283dEyzRaAw3Vn-2" edge="1">
          <mxGeometry width="100" height="100" relative="1" as="geometry">
            <mxPoint x="439" y="550" as="sourcePoint" />
            <mxPoint x="539" y="450" as="targetPoint" />
          </mxGeometry>
        </mxCell>
        <mxCell id="SmoXj8283dEyzRaAw3Vn-26" value="" style="edgeStyle=entityRelationEdgeStyle;fontSize=12;html=1;endArrow=ERoneToMany;rounded=0;" parent="1" source="SmoXj8283dEyzRaAw3Vn-9" target="SmoXj8283dEyzRaAw3Vn-2" edge="1">
          <mxGeometry width="100" height="100" relative="1" as="geometry">
            <mxPoint x="329" y="270" as="sourcePoint" />
            <mxPoint x="429" y="170" as="targetPoint" />
          </mxGeometry>
        </mxCell>
        <mxCell id="SmoXj8283dEyzRaAw3Vn-27" value="" style="edgeStyle=entityRelationEdgeStyle;fontSize=12;html=1;endArrow=ERoneToMany;rounded=0;entryX=1;entryY=0.25;entryDx=0;entryDy=0;" parent="1" source="SmoXj8283dEyzRaAw3Vn-3" target="SmoXj8283dEyzRaAw3Vn-2" edge="1">
          <mxGeometry width="100" height="100" relative="1" as="geometry">
            <mxPoint x="329" y="270" as="sourcePoint" />
            <mxPoint x="429" y="170" as="targetPoint" />
          </mxGeometry>
        </mxCell>
        <mxCell id="ZiBedkgneq7wG_RZkG3g-22" value="Exhaust" style="swimlane;childLayout=stackLayout;horizontal=1;startSize=50;horizontalStack=0;rounded=1;fontSize=14;fontStyle=0;strokeWidth=2;resizeParent=0;resizeLast=1;shadow=0;dashed=0;align=center;arcSize=4;whiteSpace=wrap;html=1;" parent="1" vertex="1">
          <mxGeometry x="49" y="195" width="160" height="145" as="geometry" />
        </mxCell>
        <mxCell id="ZiBedkgneq7wG_RZkG3g-23" value="id (pk)&lt;br&gt;name&lt;br&gt;level&lt;br&gt;price&lt;br&gt;ImpactNitro" style="align=left;strokeColor=none;fillColor=none;spacingLeft=4;fontSize=12;verticalAlign=top;resizable=0;rotatable=0;part=1;html=1;" parent="ZiBedkgneq7wG_RZkG3g-22" vertex="1">
          <mxGeometry y="50" width="160" height="95" as="geometry" />
        </mxCell>
        <mxCell id="ZiBedkgneq7wG_RZkG3g-24" value="" style="edgeStyle=entityRelationEdgeStyle;fontSize=12;html=1;endArrow=ERmany;rounded=0;entryX=0;entryY=0.25;entryDx=0;entryDy=0;" parent="1" source="ZiBedkgneq7wG_RZkG3g-23" target="SmoXj8283dEyzRaAw3Vn-2" edge="1">
          <mxGeometry width="100" height="100" relative="1" as="geometry">
            <mxPoint x="139" y="470" as="sourcePoint" />
            <mxPoint x="179" y="330" as="targetPoint" />
          </mxGeometry>
        </mxCell>
        <mxCell id="ZiBedkgneq7wG_RZkG3g-28" value="Rims" style="swimlane;childLayout=stackLayout;horizontal=1;startSize=50;horizontalStack=0;rounded=1;fontSize=14;fontStyle=0;strokeWidth=2;resizeParent=0;resizeLast=1;shadow=0;dashed=0;align=center;arcSize=4;whiteSpace=wrap;html=1;" parent="1" vertex="1">
          <mxGeometry x="303" y="640" width="160" height="150" as="geometry" />
        </mxCell>
        <mxCell id="ZiBedkgneq7wG_RZkG3g-29" value="id (pk)&lt;br&gt;name&lt;br&gt;level&lt;br&gt;price&lt;br&gt;type&lt;br&gt;color" style="align=left;strokeColor=none;fillColor=none;spacingLeft=4;fontSize=12;verticalAlign=top;resizable=0;rotatable=0;part=1;html=1;" parent="ZiBedkgneq7wG_RZkG3g-28" vertex="1">
          <mxGeometry y="50" width="160" height="100" as="geometry" />
        </mxCell>
        <mxCell id="ZiBedkgneq7wG_RZkG3g-30" value="" style="edgeStyle=entityRelationEdgeStyle;fontSize=12;html=1;endArrow=ERoneToMany;rounded=0;entryX=1;entryY=0.895;entryDx=0;entryDy=0;entryPerimeter=0;" parent="1" source="ZiBedkgneq7wG_RZkG3g-28" target="SmoXj8283dEyzRaAw3Vn-2" edge="1">
          <mxGeometry width="100" height="100" relative="1" as="geometry">
            <mxPoint x="559" y="590" as="sourcePoint" />
            <mxPoint x="659" y="490" as="targetPoint" />
          </mxGeometry>
        </mxCell>
      </root>
    </mxGraphModel>
  </diagram>
</mxfile>
